<?xml version="1.0" standalone="no"?><svg xmlns="http://www.w3.org/2000/svg" viewBox="0 0 1440 320"><path fill="#0099ff" fill-opacity="0.5" d="M0,96L20,90.7C40,85,80,75,120,90.7C160,107,200,149,240,165.3C280,181,320,171,360,149.3C400,128,440,96,480,106.7C520,117,560,171,600,192C640,213,680,203,720,165.3C760,128,800,64,840,85.3C880,107,920,213,960,224C1000,235,1040,149,1080,122.7C1120,96,1160,128,1200,160C1240,192,1280,224,1320,208C1360,192,1400,128,1420,96L1440,64L1440,320L1420,320C1400,320,1360,320,1320,320C1280,320,1240,320,1200,320C1160,320,1120,320,1080,320C1040,320,1000,320,960,320C920,320,880,320,840,320C800,320,760,320,720,320C680,320,640,320,600,320C560,320,520,320,480,320C440,320,400,320,360,320C320,320,280,320,240,320C200,320,160,320,120,320C80,320,40,320,20,320L0,320Z"></path></svg>